<!-- Generator: Adobe Illustrator 24.2.3, SVG Export Plug-In  -->
<svg version="1.1" xmlns="http://www.w3.org/2000/svg" xmlns:xlink="http://www.w3.org/1999/xlink" x="0px" y="0px"
	 width="1121.65px" height="342.77px" viewBox="0 0 1121.65 342.77"
	 style="overflow:visible;enable-background:new 0 0 1121.65 342.77;" xml:space="preserve">
<style type="text/css">
	.st0{fill:#333446;}
	.st1{fill:#00E697;}
</style>
<defs>
</defs>
<g id="Grupo_1253_1_" transform="translate(0 0)">
	<path id="Trazado_475_1_" class="st0" d="M159.57,264.62l-34.17-33.83c-1.75,1.7-3.36,3.24-4.93,4.81l-45.92,45.48
		c-4.05,4.02-8.06,8.08-12.18,12.03c-3.47,3.55-9.17,3.62-12.73,0.14c-1.24-1.21-2.1-2.75-2.48-4.43c-0.79-3.12,0.19-6.43,2.56-8.61
		c3.18-3.18,6.37-6.35,9.58-9.51c13.59-13.46,27.19-26.92,40.78-40.38c4.05-4.02,7.98-8.15,12.2-12.47
		c-11.11-11.16-22.5-22.31-33.99-33.72c-1.13,1.09-2.17,2.07-3.19,3.07c-19.65,19.46-39.29,38.92-58.93,58.38
		c-1.71,1.96-4.14,3.14-6.74,3.28c-3.65,0.27-7.07-1.79-8.55-5.14c-1.64-3.36-0.99-7.39,1.64-10.06c1.83-1.92,3.74-3.77,5.64-5.64
		c15.98-15.83,31.97-31.67,47.98-47.5c3.02-3,6-6.03,9.11-9.16c-0.44-0.49-0.83-0.97-1.27-1.41c-20.2-20.03-40.41-40.06-60.61-60.08
		c-1.97-1.7-3.15-4.14-3.27-6.74c-0.28-3.66,1.82-7.08,5.21-8.49c3.28-1.64,7.24-1.04,9.87,1.52c2.11,1.88,4.02,3.93,6.03,5.91
		l55.53,54.97c0.45,0.45,0.93,0.87,1.63,1.51l34.19-33.83c-0.99-0.99-1.82-1.84-2.66-2.68L62.59,75.25L49.91,62.69
		c-2.46-2.2-3.5-5.59-2.69-8.79c1.12-4.84,5.95-7.85,10.79-6.73c1.61,0.37,3.08,1.18,4.26,2.33c3.34,3.14,6.54,6.42,9.8,9.64
		l52.08,51.58c0.35,0.34,0.7,0.66,1.29,1.21c11.45-11.16,22.69-22.45,34.13-33.74c-0.51-0.6-0.89-1.11-1.33-1.54
		c-20.2-20.03-40.43-40.04-60.68-60.05c-2.62-2.1-3.98-5.39-3.63-8.73c0.37-3.38,2.69-6.23,5.93-7.28c3.16-1.24,6.76-0.48,9.16,1.92
		c2.59,2.4,5.05,4.93,7.57,7.44l53.96,53.46c0.62,0.61,1.28,1.18,2.01,1.86c2.07-2.02,4.02-3.91,5.96-5.83l46.94-46.52
		c3.48-3.45,6.92-6.95,10.48-10.32c3.53-3.47,9.2-3.42,12.67,0.11c0.88,0.9,1.57,1.97,2.01,3.16c1.39,3.39,0.52,7.28-2.18,9.75
		c-2.93,2.97-5.92,5.91-8.89,8.85l-40.46,40.03c-3.89,3.84-7.77,7.69-11.66,11.54c-0.61,0.61-1.19,1.25-1.98,2.11l34.06,33.75
		c0.56-0.47,1.06-0.83,1.5-1.26L276.7,55.5c2.06-2.04,4.06-4.13,6.19-6.08c3.65-3.41,9.37-3.21,12.78,0.44
		c1.21,1.3,2.01,2.92,2.31,4.67c0.55,2.99-0.5,6.06-2.76,8.09c-5.71,5.64-11.42,11.3-17.11,16.99
		c-11.48,11.37-22.96,22.73-34.45,34.09c-3.65,3.62-7.24,7.3-11.04,11.14l34.09,33.77c0.7-0.7,1.33-1.19,1.89-1.75
		c19.99-19.8,39.97-39.6,59.96-59.4c1.52-1.79,3.6-3.01,5.91-3.47c4.9-0.86,9.57,2.41,10.43,7.31c0.5,2.86-0.4,5.78-2.43,7.85
		c-2.26,2.4-4.66,4.67-7,6.98l-41.99,41.58l-11.98,11.88c-0.56,0.56-1.09,1.16-1.76,1.86c1.14,1.16,2.19,2.25,3.27,3.31l39.76,39.35
		c6.34,6.28,12.69,12.55,19.03,18.82c1.96,1.71,3.12,4.17,3.19,6.77c0.12,4.97-3.81,9.1-8.78,9.23c-2.28,0.06-4.49-0.75-6.19-2.26
		c-2.91-2.65-5.64-5.48-8.46-8.26l-53.11-52.61c-0.51-0.5-1.05-0.96-1.74-1.59l-34.13,33.83c4.14,4.16,8.1,8.15,12.09,12.11
		c11.08,10.98,22.17,21.94,33.26,32.9c5.77,5.71,11.53,11.43,17.29,17.15c2.28,2.03,3.34,5.08,2.82,8.08
		c-0.43,3.29-2.72,6.03-5.87,7.05c-3.16,1.22-6.74,0.48-9.16-1.88c-1.97-1.78-3.8-3.7-5.68-5.57
		c-17.93-17.77-35.86-35.53-53.78-53.3c-1.19-1.18-2.25-2.52-3.57-4l-34.49,34.15c0.85,0.87,1.49,1.56,2.16,2.22l47.31,46.82
		c4.45,4.41,8.89,8.84,13.39,13.24c2.13,1.92,3.21,4.74,2.91,7.59c-0.47,4.95-4.86,8.59-9.82,8.12c-2.03-0.19-3.93-1.07-5.4-2.48
		c-3.52-3.38-7-6.86-10.49-10.32l-51.41-50.9c-0.45-0.44-0.94-0.86-1.53-1.41c-0.58,0.51-1.12,0.96-1.62,1.45l-60.16,59.6
		c-1.31,1.53-2.95,2.75-4.79,3.57c-3.93,1.4-8.31-0.05-10.62-3.52c-2.38-3.45-2-8.1,0.9-11.12c2.52-2.7,5.22-5.24,7.84-7.84
		l40.46-40.03c4.4-4.36,8.79-8.71,13.19-13.07C158.26,266.03,158.8,265.45,159.57,264.62z M219.61,205.28l34.26-33.91l-34.26-33.91
		l-34.27,33.91L219.61,205.28z M172.49,251.94l34.25-33.93l-34.26-33.91l-34.25,33.91L172.49,251.94z M172.49,158.63l34.25-33.93
		l-34.25-33.91l-34.25,33.93L172.49,158.63z M125.36,205.29l34.25-33.92c-11.56-11.42-22.82-22.68-34.29-33.89l-34.21,33.89
		L125.36,205.29z"/>
	<g id="Grupo_1219_1_" transform="translate(66.592 20.767)">
		<path id="Trazado_2_1_" class="st0" d="M885.66,147.66c0,0.7-0.09,1.41-0.09,2.11c0,8.58,0,17.16,0,25.75
			c0.04,0.88-0.02,1.77-0.18,2.64c-0.7,2.83-3.37,4.71-6.27,4.45c-2.84-0.14-5.16-2.31-5.48-5.13c-0.09-0.81-0.13-1.63-0.11-2.45
			c0-13.69,0-27.38,0-41.07c0-0.13,0-0.27,0-0.41c-0.46-2.87,1.11-5.68,3.8-6.79c3.07-1.19,6.55-0.45,8.87,1.87
			c0.6,0.65,1.17,1.33,1.69,2.04c7.02,9.2,14.04,18.42,21.05,27.64c0.49,0.71,1.12,1.33,1.83,1.81c0.04-0.63,0.11-1.27,0.11-1.9
			c0-8.24,0-16.48,0-24.72c0-0.61,0-1.23,0-1.84c0.24-3.3,3.1-5.78,6.4-5.55c2.92,0.21,5.26,2.49,5.53,5.41
			c0.06,0.54,0.05,1.09,0.05,1.64c0,14.1,0,28.19,0,42.29c0.12,1.43-0.17,2.87-0.84,4.14c-2.11,3.11-6.34,3.92-9.46,1.81
			c-0.2-0.14-0.39-0.28-0.58-0.44c-0.92-0.81-1.75-1.71-2.47-2.71c-7.41-9.68-14.81-19.37-22.19-29.07
			c-0.44-0.57-0.89-1.13-1.33-1.69L885.66,147.66z"/>
		<path id="Trazado_3_1_" class="st1" d="M567.24,160.23v-2.18c0-7.7,0-15.39,0-23.08c-0.02-1.29,0.06-2.58,0.24-3.86
			c0.45-2.73,2.8-4.74,5.56-4.78c2.76-0.06,5.18,1.85,5.77,4.55c0.18,0.93,0.27,1.87,0.26,2.82c0,13.63,0,27.25,0,40.88
			c0,0.61,0,1.23-0.06,1.84c0.07,2.4-1.36,4.58-3.59,5.48c-2.37,1.06-5.14,0.65-7.1-1.05c-0.87-0.76-1.65-1.62-2.33-2.56
			c-7.4-9.68-14.8-19.37-22.18-29.06c-0.52-0.7-1.06-1.34-1.59-2.01l-0.48,0.13c-0.04,0.7-0.12,1.41-0.12,2.11
			c0,8.78,0,17.57,0,26.35c0.04,0.95-0.06,1.9-0.3,2.82c-0.85,2.64-3.48,4.28-6.22,3.88c-2.74-0.34-4.87-2.56-5.1-5.31
			c-0.04-0.47,0-0.95,0-1.41c0-14.16,0-28.32,0-42.49c-0.03-0.95,0.1-1.91,0.37-2.82c0.7-2.21,2.7-3.75,5.01-3.86
			c3.32-0.47,6.6,1.03,8.41,3.86c7.05,9.42,14.24,18.75,21.39,28.12c0.48,0.63,0.99,1.24,1.49,1.86L567.24,160.23z"/>
		<path id="Trazado_4_1_" class="st0" d="M489.89,183.17c-8.75,0.35-17.19-3.21-23.04-9.73c-10.43-11.94-9.22-30.07,2.72-40.51
			c3.45-3.01,7.57-5.16,12.02-6.26c8.12-2.29,16.82-1.03,23.96,3.45c7.95,4.74,12.95,13.2,13.26,22.45
			c1.08,15.06-9.79,28.34-24.77,30.26C492.52,183.07,490.95,183.08,489.89,183.17z M506.35,154.41c-0.26-1.88-0.63-3.74-1.09-5.58
			c-2.04-7.04-8.49-11.89-15.82-11.89c-7.19-0.16-13.64,4.43-15.84,11.28c-1.09,3.24-1.3,6.71-0.61,10.06
			c1.69,9.08,10.43,15.08,19.51,13.39c0.55-0.1,1.09-0.23,1.63-0.39C501.52,169.02,506.51,162.13,506.35,154.41z"/>
		<path id="Trazado_5_1_" class="st0" d="M1025.3,183.15c-15.83,0.45-29.02-12.02-29.47-27.85c-0.41-14.35,9.86-26.79,24.03-29.11
			c6.81-1.34,13.88-0.32,20.04,2.88c10.07,5.25,16,16.03,15.05,27.34C1053.88,171.86,1040.77,183.68,1025.3,183.15z M1042.35,154.55
			c-0.14-1.55-0.38-3.1-0.7-4.62c-1.27-6.18-6.03-11.05-12.19-12.44c-5.93-1.72-12.32,0.17-16.35,4.84c-3.65,4.08-5.21,9.61-4.23,15
			c1.2,9.17,9.6,15.64,18.78,14.45c0.8-0.1,1.59-0.27,2.36-0.48C1037.47,169.17,1042.53,162.29,1042.35,154.55L1042.35,154.55z"/>
		<path id="Trazado_6_1_" class="st1" d="M630.08,160.23v-2.39c0-8.46,0-16.92,0-25.33c-0.2-2.84,1.71-5.4,4.5-6.01
			c3.12-0.75,6.26,1.17,7.02,4.29c0.05,0.21,0.09,0.43,0.12,0.64c0.06,0.68,0.07,1.36,0.05,2.04c0,13.89,0,27.78,0,41.67
			c0,0.2,0,0.41,0,0.61c0.36,2.6-1.09,5.1-3.52,6.08c-2.56,1.18-5.59,0.61-7.56-1.41c-0.82-0.82-1.57-1.7-2.25-2.64
			c-7.36-9.63-14.71-19.26-22.05-28.9c-0.43-0.56-0.91-1.1-1.37-1.65l-0.42,0.14c0,0.7-0.08,1.41-0.08,2.11c0,8.65,0,17.3,0,25.94
			c0.02,0.95-0.08,1.9-0.3,2.82c-0.85,3.08-4.04,4.89-7.12,4.03c-2.39-0.66-4.09-2.77-4.23-5.25c0-0.54,0-1.09,0-1.64
			c0-13.89,0-27.78,0-41.67c0-0.48,0-0.95,0-1.41c0.05-3.2,2.64-5.78,5.84-5.81c3.11-0.22,6.1,1.25,7.82,3.85
			c7.17,9.51,14.43,18.97,21.65,28.44c0.44,0.58,0.92,1.11,1.41,1.67L630.08,160.23z"/>
		<path id="Trazado_7_1_" class="st0" d="M936.26,154.39v-20.21c-0.02-0.68,0-1.36,0.06-2.04c0.2-3,2.64-5.36,5.64-5.45
			c7-0.24,14.01-0.1,21,0.42c12.05,0.97,21.93,9.95,24.04,21.85c3.13,14.69-6.24,29.15-20.94,32.28c-0.07,0.01-0.14,0.03-0.21,0.04
			c-2.52,0.54-5.09,0.83-7.68,0.87c-5.03,0.13-10.07-0.08-15.1,0.08c-3.53,0.27-6.61-2.37-6.88-5.9c-0.02-0.31-0.02-0.62,0-0.93
			C936.34,168.41,936.26,161.4,936.26,154.39z M948.6,171.08c4.08,0,7.96,0.22,11.81-0.06c4-0.24,7.73-2.1,10.34-5.14
			c3.21-3.8,4.62-8.81,3.86-13.73c-0.52-7.44-6.33-13.43-13.75-14.18c-3.52-0.28-7.05-0.38-10.57-0.3
			c-0.56,0.02-1.11,0.07-1.66,0.15L948.6,171.08z"/>
		<path id="Trazado_8_1_" class="st0" d="M667.61,137.54v11.11c0.7,0,1.41,0.09,2.16,0.09c5.86,0,11.71,0,17.58,0
			c1.02-0.02,2.04,0.1,3.02,0.35c2.84,0.89,4.42,3.92,3.53,6.76c-0.64,2.03-2.42,3.5-4.54,3.74c-0.61,0.05-1.22,0.06-1.83,0.04
			h-19.89v11.61c0.7,0.04,1.41,0.11,2.16,0.12h21.45c0.75-0.02,1.5,0.01,2.24,0.09c2.94,0.4,5.01,3.11,4.61,6.05
			c-0.34,2.52-2.4,4.45-4.93,4.64c-0.27,0-0.54,0-0.82,0c-10.22,0-20.44,0-30.65,0c-2.16,0.11-4.21-0.93-5.4-2.73
			c-0.74-1.23-1.08-2.67-0.97-4.1c0-11.78,0-23.57,0-35.35c0-2.32,0.11-4.64,0-6.94c-0.15-3.42,2.5-6.31,5.92-6.46
			c0.15-0.01,0.31-0.01,0.46,0c10.08,0.05,20.16,0,30.24,0c3.01-0.22,5.62,2.04,5.83,5.05c0.22,3.01-2.04,5.62-5.05,5.83
			c-0.26,0.02-0.52,0.02-0.78,0c-5.18,0.06-10.35,0-15.51,0L667.61,137.54z"/>
		<path id="Trazado_9_1_" class="st0" d="M823.99,169.9c-1.18,2.75-2.32,5.43-3.47,8.11c-0.27,0.69-0.61,1.36-1,2
			c-1.62,2.52-4.87,3.43-7.57,2.11c-2.66-1.38-3.77-4.6-2.53-7.33c3.71-8.33,7.4-16.66,11.07-25c2.78-6.28,5.56-12.56,8.33-18.85
			c0.81-2.37,2.75-4.18,5.17-4.83c4.08-1.42,8.54,0.7,10.03,4.76c4.54,10.34,9.16,20.65,13.71,30.97c1.85,4.17,3.69,8.34,5.55,12.5
			c0.68,1.35,0.8,2.92,0.36,4.36c-0.98,3.06-4.26,4.75-7.32,3.77c-0.92-0.3-1.76-0.82-2.43-1.52c-0.76-0.87-1.37-1.85-1.82-2.92
			c-1.21-2.65-2.33-5.36-3.52-8.1L823.99,169.9z M836.26,140.63l-7.63,18.18h15.27L836.26,140.63z"/>
		<path id="Trazado_10_1_" class="st0" d="M431.71,183.18c-13.1,0.42-24.74-8.32-27.98-21.02c-3.65-13.11,2.34-26.98,14.38-33.32
			c5.74-2.79,12.18-3.79,18.5-2.88c4.77,0.49,9.33,2.2,13.24,4.97c1.28,0.81,2.22,2.06,2.64,3.52c0.74,2.28-0.02,4.78-1.9,6.27
			c-1.81,1.57-4.4,1.88-6.52,0.76c-0.78-0.42-1.53-0.89-2.25-1.41c-3.34-2.31-7.37-3.38-11.42-3.03
			c-5.73,0.35-10.77,3.89-13.03,9.16c-2.44,4.98-2.53,10.8-0.23,15.85c3.43,8.27,12.92,12.19,21.19,8.76
			c0.73-0.3,1.45-0.66,2.13-1.07c1.37-0.75,2.57-1.8,3.89-2.62c2.59-1.73,6.09-1.04,7.82,1.55c0.88,1.31,1.16,2.93,0.79,4.47
			c-0.31,1.27-1.04,2.39-2.06,3.21c-4.27,3.77-9.64,6.08-15.31,6.59C434.3,183.07,433,183.1,431.71,183.18z"/>
		<path id="Trazado_11_1_" class="st0" d="M734.92,183.29c-15.9,0.03-28.83-12.83-28.86-28.74c-0.03-13.46,9.28-25.15,22.4-28.14
			c8.47-2.06,17.42-0.44,24.63,4.47c1.59,0.98,2.65,2.63,2.88,4.48c0.36,2.21-0.63,4.42-2.51,5.64c-1.82,1.32-4.23,1.47-6.2,0.38
			c-0.83-0.47-1.63-0.98-2.41-1.53c-3.88-2.66-8.7-3.58-13.29-2.54c-5.83,1.24-10.44,5.69-11.9,11.47
			c-1.29,4.07-1.14,8.46,0.42,12.43c3.06,8.49,12.42,12.9,20.92,9.84c1.19-0.43,2.33-0.99,3.39-1.68c1.04-0.63,1.99-1.41,3.01-2.11
			c1.99-1.46,4.69-1.46,6.68,0c2.51,1.79,3.1,5.27,1.32,7.78c-0.28,0.4-0.62,0.76-0.99,1.07c-3.58,3.3-8.03,5.5-12.82,6.34
			C739.37,182.91,737.12,183.04,734.92,183.29z"/>
		<path id="Trazado_12_1_" class="st0" d="M792.32,137.91v2.7c0,11.64,0,23.28,0,34.92c0.04,0.88-0.03,1.77-0.2,2.64
			c-0.86,3.26-4.21,5.21-7.47,4.34c-2.44-0.65-4.23-2.73-4.51-5.24c-0.03-0.61-0.03-1.23,0-1.84c0-11.57,0-23.14,0-34.71v-2.69
			c-0.74-0.04-1.41-0.11-2.04-0.11c-3.2,0-6.4,0.04-9.6,0c-3.11,0.16-5.77-2.24-5.93-5.35c-0.16-3.11,2.24-5.77,5.35-5.93l0,0
			c0.4-0.04,0.82,0,1.23,0h34.1c0.34,0,0.7,0,1.02,0c3,0.09,5.41,2.51,5.48,5.52c0.05,3.08-2.38,5.63-5.46,5.72
			c-3.13,0.11-6.26,0-9.39,0L792.32,137.91z"/>
	</g>
</g>
</svg>
